<?xml version="1.0" standalone="no"?>
<!DOCTYPE svg PUBLIC "-//W3C//DTD SVG 20010904//EN"
 "http://www.w3.org/TR/2001/REC-SVG-20010904/DTD/svg10.dtd">
<svg version="1.0" xmlns="http://www.w3.org/2000/svg"
 width="2565.000000pt" height="2565.000000pt" viewBox="0 0 2565.000000 2565.000000"
 preserveAspectRatio="xMidYMid meet">
<metadata>
Created by potrace 1.11, written by Peter Selinger 2001-2013
</metadata>
<g transform="translate(0.000000,2565.000000) scale(0.100000,-0.100000)"
fill="#000000" stroke="none">
<path d="M12100 25640 c-52 -4 -196 -13 -320 -19 -124 -6 -270 -18 -325 -26
-55 -9 -123 -15 -151 -15 -28 0 -64 -4 -80 -10 -16 -5 -74 -14 -129 -19 -148
-15 -411 -53 -760 -112 -66 -11 -196 -38 -290 -60 -93 -22 -190 -44 -215 -49
-25 -4 -99 -22 -165 -40 -66 -18 -145 -37 -175 -44 -30 -6 -59 -14 -65 -17 -5
-4 -64 -21 -130 -37 -66 -17 -140 -38 -164 -47 -24 -8 -54 -15 -67 -15 -12 0
-25 -4 -28 -8 -3 -5 -78 -32 -168 -61 -90 -29 -175 -59 -190 -67 -14 -8 -37
-14 -51 -14 -14 0 -27 -7 -31 -15 -3 -8 -14 -15 -24 -15 -11 0 -25 -6 -31 -14
-6 -7 -22 -11 -36 -8 -17 3 -27 -1 -31 -12 -4 -9 -48 -36 -98 -60 -51 -24
-132 -72 -182 -108 -49 -35 -110 -77 -136 -92 -27 -15 -48 -31 -48 -36 0 -4
-20 -21 -44 -36 -51 -34 -133 -106 -254 -223 -48 -46 -113 -109 -145 -140 -52
-49 -136 -153 -288 -355 -25 -34 -61 -90 -80 -126 -19 -36 -46 -84 -61 -106
-16 -23 -28 -47 -28 -53 0 -19 -31 -75 -46 -84 -8 -4 -14 -16 -14 -25 0 -9
-21 -60 -47 -112 -25 -52 -50 -104 -54 -115 -22 -61 -89 -278 -89 -288 0 -7
-7 -25 -15 -41 -9 -16 -13 -31 -11 -34 3 -2 -2 -21 -10 -41 -24 -54 -51 -168
-75 -310 -12 -69 -23 -129 -25 -132 -2 -3 -13 -100 -25 -215 -18 -181 -20
-252 -16 -534 2 -179 10 -374 16 -435 28 -256 42 -367 61 -485 11 -69 27 -163
34 -210 18 -110 40 -215 66 -314 11 -44 20 -94 20 -112 0 -18 4 -35 9 -39 6
-3 13 -27 17 -53 3 -26 15 -78 26 -117 11 -38 22 -79 25 -90 3 -11 11 -41 19
-66 8 -25 16 -55 19 -67 2 -12 14 -55 26 -95 12 -39 30 -103 41 -142 72 -250
111 -372 158 -485 17 -41 50 -127 116 -300 31 -80 63 -159 75 -182 5 -10 9
-27 9 -38 0 -11 4 -20 10 -20 5 0 13 -12 16 -27 4 -16 13 -37 20 -48 8 -11 14
-29 14 -41 0 -12 7 -27 15 -34 8 -7 15 -21 15 -31 0 -11 5 -19 10 -19 6 0 10
-15 10 -34 0 -21 6 -36 15 -40 9 -3 15 -18 15 -35 0 -16 6 -31 15 -35 8 -3 15
-11 15 -18 0 -8 13 -38 28 -68 16 -30 27 -60 25 -67 -3 -7 5 -22 16 -35 12
-12 21 -32 21 -45 0 -13 5 -23 10 -23 6 0 10 -6 10 -14 0 -8 16 -46 35 -85 19
-39 35 -73 35 -77 0 -7 70 -147 130 -259 20 -38 74 -142 120 -230 46 -88 89
-169 96 -180 8 -11 14 -28 14 -38 0 -16 25 -63 40 -77 16 -14 80 -134 80 -149
0 -9 8 -26 18 -37 25 -29 33 -44 167 -309 133 -264 301 -536 746 -1209 44 -65
79 -122 79 -126 0 -5 4 -10 8 -12 9 -3 153 -214 161 -233 2 -5 11 -19 21 -30
30 -34 170 -244 170 -254 0 -5 4 -11 9 -13 5 -1 49 -61 97 -133 76 -113 670
-950 774 -1090 92 -125 364 -504 534 -745 103 -146 199 -274 213 -286 17 -14
23 -25 18 -34 -5 -8 -4 -11 2 -7 6 4 24 -15 42 -41 17 -26 49 -72 71 -102 62
-84 79 -113 75 -121 -3 -4 3 -13 13 -20 16 -13 16 -13 2 6 -14 19 -14 19 3 6
9 -7 17 -20 17 -27 0 -8 5 -14 11 -14 5 0 7 -5 4 -10 -4 -6 20 -48 52 -93 33
-45 106 -149 163 -232 107 -154 146 -211 364 -521 105 -151 320 -480 502 -769
21 -33 61 -97 91 -142 29 -44 53 -88 53 -97 0 -9 4 -16 9 -16 8 0 240 -413
490 -872 121 -223 276 -534 376 -753 69 -152 244 -558 288 -670 30 -77 98
-248 150 -380 101 -255 138 -350 166 -430 42 -118 54 -152 61 -180 13 -45 51
-156 66 -192 8 -17 14 -39 14 -50 0 -10 7 -27 15 -37 8 -11 15 -34 15 -51 0
-17 9 -41 20 -52 17 -18 17 -23 5 -33 -8 -7 -15 -17 -15 -23 0 -5 -15 -33 -34
-61 -18 -28 -50 -87 -70 -131 -20 -44 -41 -88 -47 -98 -5 -10 -23 -44 -40 -75
-16 -31 -35 -66 -42 -76 -7 -11 -39 -63 -72 -115 -52 -84 -191 -279 -350 -493
-28 -37 -60 -73 -72 -79 -13 -7 -23 -20 -23 -29 0 -16 -178 -216 -284 -320
-104 -101 -724 -570 -754 -570 -5 0 -15 -7 -23 -16 -17 -21 -121 -86 -194
-123 -16 -8 -32 -17 -35 -21 -8 -10 -95 -50 -108 -50 -7 0 -12 -3 -12 -8 0 -9
-12 -15 -215 -115 -82 -40 -159 -78 -170 -84 -11 -6 -45 -19 -75 -29 -30 -9
-75 -28 -99 -41 -24 -13 -51 -23 -61 -23 -9 0 -25 -7 -36 -15 -10 -8 -28 -15
-40 -15 -11 0 -29 -7 -40 -15 -10 -8 -38 -15 -61 -15 -26 0 -45 -6 -50 -14
-10 -17 -87 -46 -124 -46 -15 0 -29 -6 -32 -13 -2 -7 -20 -14 -38 -15 -53 -3
-89 -13 -89 -23 0 -5 -13 -9 -28 -9 -16 0 -32 -3 -36 -7 -9 -9 -102 -30 -194
-43 -35 -5 -68 -13 -75 -17 -7 -4 -37 -10 -67 -14 -30 -3 -100 -17 -155 -29
-119 -27 -189 -38 -310 -50 -98 -9 -122 -13 -145 -23 -51 -23 -1112 -49 -1155
-28 -11 5 -100 12 -199 14 -116 3 -181 9 -185 16 -4 6 -43 13 -87 16 -43 3
-113 11 -154 16 -41 6 -92 11 -112 13 -20 1 -40 5 -44 9 -4 4 -18 7 -31 7 -14
0 -23 6 -23 15 0 18 -12 19 -27 4 -7 -7 -26 -7 -64 0 -30 6 -97 18 -149 26
-52 7 -124 21 -160 30 -36 9 -76 18 -90 21 -14 2 -46 11 -71 20 -25 8 -59 17
-75 19 -27 4 -171 42 -309 80 -33 10 -76 21 -95 26 -19 6 -39 11 -45 12 -44
12 -407 132 -432 143 -17 8 -36 14 -43 14 -7 0 -24 6 -38 14 -15 7 -59 23 -99
35 -40 12 -75 26 -78 31 -4 6 -17 10 -30 10 -13 0 -27 5 -30 10 -3 6 -14 10
-23 10 -9 0 -30 7 -46 15 -15 8 -37 15 -47 15 -10 0 -21 5 -24 10 -7 11 -55
33 -125 57 -25 8 -52 21 -61 29 -8 8 -21 14 -27 14 -7 0 -29 9 -49 20 -21 11
-43 20 -49 20 -6 0 -24 6 -40 14 -90 43 -142 66 -152 66 -7 0 -12 5 -12 10 0
6 -9 10 -19 10 -11 0 -26 6 -34 14 -7 8 -45 29 -83 47 -164 76 -254 123 -254
131 0 4 -8 8 -18 8 -11 0 -32 11 -48 25 -16 14 -33 25 -38 25 -5 0 -17 7 -26
15 -10 9 -27 18 -39 20 -12 2 -49 22 -82 45 -32 22 -62 40 -65 40 -3 0 -19 9
-35 21 -16 11 -29 17 -29 13 0 -4 -10 1 -23 12 -36 32 -88 66 -103 68 -7 1
-21 9 -31 18 -10 8 -34 24 -53 33 -19 10 -37 21 -40 24 -6 9 -108 71 -116 71
-2 0 -17 11 -32 25 -15 14 -33 25 -41 25 -8 0 -27 13 -43 30 -15 16 -33 30
-39 30 -6 0 -32 18 -58 40 -26 22 -52 40 -57 40 -6 0 -21 11 -34 25 -13 14
-28 25 -34 25 -6 0 -28 16 -49 35 -21 19 -42 35 -48 35 -5 0 -26 15 -46 34
-21 18 -51 40 -68 49 -16 8 -41 27 -54 41 -14 14 -29 26 -34 26 -8 0 -47 28
-87 63 -8 8 -33 27 -55 43 -22 16 -46 35 -53 41 -7 7 -19 13 -26 13 -7 0 -27
18 -45 40 -18 23 -50 52 -71 65 -21 13 -58 45 -82 70 -24 25 -79 76 -123 113
-44 36 -134 119 -200 184 -66 65 -123 118 -127 118 -16 0 -519 518 -556 572
-23 34 -68 86 -133 154 -33 34 -59 66 -59 71 0 5 -12 20 -26 34 -14 13 -47 51
-72 84 -26 33 -54 68 -63 78 -9 10 -34 43 -55 75 -21 31 -50 68 -64 82 -15 14
-37 43 -50 65 -13 22 -30 45 -37 50 -19 15 -113 148 -113 160 0 5 -14 23 -30
38 -17 16 -30 34 -30 41 0 7 -9 21 -21 32 -12 10 -30 36 -40 56 -11 21 -24 38
-29 38 -5 0 -12 10 -16 23 -4 12 -18 36 -31 52 -57 71 -90 123 -97 151 -4 16
-20 45 -35 64 -15 19 -36 53 -46 75 -10 22 -28 54 -40 70 -29 39 -85 145 -85
159 0 6 -10 22 -23 36 -12 14 -29 36 -38 50 -22 34 -129 274 -129 289 0 6 -4
11 -8 11 -5 0 -14 10 -20 22 -6 13 -23 41 -37 63 -14 22 -27 47 -31 55 -3 8
-12 27 -20 42 -8 14 -14 32 -14 40 -1 16 -28 53 -35 46 -3 -2 -10 -31 -16 -63
-9 -50 -8 -60 5 -67 9 -5 16 -22 16 -38 0 -16 16 -73 35 -127 20 -54 52 -145
71 -203 20 -58 42 -118 49 -135 7 -16 38 -93 70 -170 31 -77 72 -176 91 -221
19 -45 34 -86 34 -91 0 -6 15 -39 34 -74 18 -35 41 -89 52 -119 10 -30 23 -62
30 -70 15 -19 134 -270 134 -283 0 -11 41 -104 67 -152 9 -16 21 -39 26 -50 6
-11 14 -27 19 -35 4 -8 11 -22 14 -30 14 -35 45 -98 67 -135 47 -80 167 -298
167 -302 0 -3 20 -37 44 -77 24 -39 50 -83 57 -98 8 -15 35 -62 61 -103 26
-41 50 -86 54 -100 3 -14 10 -25 14 -25 5 0 24 -28 43 -62 59 -111 72 -131 88
-150 9 -10 22 -31 30 -46 7 -15 28 -45 45 -67 17 -22 41 -58 53 -80 13 -22 31
-45 40 -51 9 -7 23 -28 31 -48 7 -20 17 -36 22 -36 4 0 8 -7 8 -15 0 -9 7 -18
15 -21 8 -4 15 -12 15 -20 0 -16 35 -54 50 -54 5 0 14 -18 21 -39 7 -24 21
-43 34 -49 13 -6 26 -23 30 -41 3 -16 24 -47 46 -68 21 -21 39 -44 39 -51 0
-8 14 -27 30 -44 17 -16 37 -42 44 -57 8 -15 33 -49 55 -76 23 -27 41 -54 41
-58 0 -5 14 -25 30 -44 17 -18 30 -39 30 -45 0 -9 14 -27 88 -113 9 -11 33
-40 52 -65 19 -24 51 -60 70 -80 19 -19 48 -54 64 -77 15 -23 39 -49 52 -58
13 -8 36 -35 51 -58 15 -23 49 -64 75 -92 136 -145 167 -181 168 -189 0 -11
880 -886 891 -886 4 0 54 -45 110 -100 57 -55 109 -100 115 -100 6 0 51 -38
100 -85 49 -46 97 -87 107 -91 11 -3 34 -23 53 -43 18 -21 53 -51 76 -67 24
-16 71 -53 106 -81 34 -29 66 -53 72 -53 5 0 26 -16 47 -35 21 -19 53 -42 71
-50 17 -9 32 -19 32 -23 0 -4 24 -23 53 -42 28 -19 54 -38 55 -43 3 -7 47 -39
155 -114 18 -12 41 -31 52 -41 11 -11 34 -28 50 -38 17 -10 32 -21 35 -24 3
-3 21 -16 40 -28 19 -11 47 -33 62 -47 15 -14 30 -25 34 -25 4 0 21 -10 38
-23 17 -13 65 -43 106 -67 41 -24 84 -51 95 -61 19 -16 97 -63 167 -101 17 -9
34 -21 37 -25 7 -9 36 -27 96 -58 22 -12 62 -36 89 -53 28 -18 58 -32 67 -32
10 0 22 -6 26 -13 10 -16 111 -79 132 -82 8 -1 17 -7 19 -13 2 -7 8 -12 14
-12 6 0 38 -17 72 -38 34 -22 90 -53 126 -71 36 -17 88 -44 115 -60 72 -41
354 -181 365 -181 6 0 10 -4 10 -10 0 -5 7 -10 15 -10 17 0 99 -41 103 -52 2
-4 11 -8 20 -8 10 0 26 -7 36 -15 11 -8 26 -15 33 -15 8 0 31 -11 51 -25 20
-14 44 -25 53 -25 9 0 22 -7 29 -15 7 -8 19 -15 26 -15 8 0 53 -18 101 -41 49
-23 99 -43 112 -46 14 -2 36 -10 50 -18 55 -29 142 -65 157 -65 8 0 34 -11 58
-24 23 -13 57 -27 75 -31 18 -4 44 -13 59 -21 15 -8 33 -14 40 -14 7 0 20 -4
30 -9 37 -19 98 -43 116 -47 11 -2 24 -8 30 -14 5 -5 19 -10 29 -10 10 0 31
-6 45 -14 48 -25 100 -46 115 -46 9 0 18 -4 21 -9 4 -5 24 -12 46 -16 22 -4
42 -11 46 -16 3 -5 12 -9 21 -9 8 0 29 -6 46 -13 50 -21 98 -37 152 -52 129
-34 170 -47 175 -54 3 -5 19 -11 35 -14 17 -3 48 -11 70 -17 22 -6 65 -16 95
-21 30 -6 59 -14 64 -20 6 -5 20 -9 31 -9 12 0 82 -20 156 -44 173 -56 395
-108 614 -145 66 -11 174 -29 240 -40 342 -59 437 -74 509 -82 43 -5 95 -13
115 -19 20 -5 57 -10 83 -10 26 0 49 -4 52 -8 3 -5 19 -7 36 -4 16 2 30 0 30
-5 0 -6 55 -13 122 -16 94 -5 125 -10 134 -22 13 -17 39 -21 28 -3 -5 8 10 10
57 5 35 -4 132 -13 214 -22 285 -28 579 -37 1135 -33 409 2 553 6 558 15 5 8
73 13 227 16 129 2 272 11 345 21 117 16 315 35 369 36 13 0 29 4 35 9 6 5 47
11 91 14 44 2 168 19 275 36 107 18 224 36 260 41 36 5 130 23 210 40 80 17
186 39 235 50 50 10 133 28 185 40 52 12 128 28 169 36 91 18 177 39 256 64
226 70 393 124 407 131 10 5 28 9 40 9 13 0 37 8 53 19 17 10 44 21 60 24 86
17 118 26 128 36 6 6 25 11 43 11 17 0 37 7 44 15 7 8 20 15 30 15 10 0 23 7
30 15 7 8 20 15 30 15 10 0 23 7 30 15 7 8 18 15 25 15 20 0 76 31 82 46 3 8
12 14 20 14 8 0 29 11 47 25 18 14 43 25 54 25 12 0 22 6 22 14 0 7 8 17 18
20 34 13 72 37 72 47 0 5 6 9 13 9 6 0 32 16 57 36 25 20 64 47 88 61 23 14
42 28 42 32 0 3 26 26 58 50 66 51 69 54 138 118 104 97 194 186 194 192 0 4
13 18 28 31 16 14 36 37 46 53 10 15 22 27 28 27 12 0 57 52 58 68 0 6 5 12
10 12 6 0 10 7 10 15 0 8 4 15 8 15 4 0 16 15 27 33 10 17 24 36 32 40 7 4 13
14 13 21 0 8 6 19 14 25 8 7 22 27 31 46 9 19 20 35 25 35 6 0 10 9 10 20 0
11 6 20 13 20 6 0 25 28 41 61 16 34 35 66 41 73 15 15 45 76 45 91 0 7 7 18
15 25 8 7 15 21 15 32 0 10 7 21 15 24 8 4 15 14 15 23 0 9 6 25 13 36 8 11
20 42 28 68 7 27 22 57 32 68 11 12 17 29 14 40 -3 12 0 22 9 26 8 3 14 17 14
32 0 14 7 35 15 45 8 11 15 32 15 47 0 14 7 32 15 39 9 7 15 20 14 29 -1 9 2
27 8 41 20 46 97 374 134 570 18 97 22 162 26 425 2 171 8 322 13 337 5 16 5
28 1 28 -4 0 -11 102 -14 228 -4 140 -14 283 -27 372 -51 360 -63 441 -80 530
-10 52 -30 158 -45 235 -15 77 -40 190 -56 250 -15 61 -31 121 -35 135 -15 61
-70 238 -119 385 -30 88 -57 178 -61 200 -4 22 -11 43 -16 46 -5 3 -10 17 -12
30 -1 13 -8 38 -15 54 -22 56 -30 80 -36 113 -4 18 -13 45 -21 60 -8 15 -14
31 -14 37 0 9 -14 47 -60 165 -10 25 -27 71 -38 103 -50 137 -64 172 -159 402
-14 33 -34 81 -44 108 -10 26 -29 71 -40 100 -12 28 -25 61 -30 72 -15 38 -72
160 -131 279 -32 65 -58 124 -58 131 0 7 -4 15 -9 17 -6 2 -51 89 -101 193
-170 353 -233 480 -285 575 -29 52 -88 160 -132 240 -44 80 -101 184 -126 231
-25 48 -56 103 -69 122 -13 20 -39 62 -59 94 -20 32 -72 117 -117 188 -78 126
-157 255 -282 460 -137 226 -202 325 -335 511 -77 108 -144 203 -150 212 -5 9
-13 19 -16 22 -18 15 -189 269 -189 280 0 6 -4 10 -9 10 -5 0 -34 37 -65 83
-31 45 -65 93 -76 107 -11 14 -20 30 -20 37 0 6 -4 13 -8 15 -12 4 -102 135
-102 147 0 6 -4 11 -9 11 -5 0 -20 17 -32 38 -13 20 -28 42 -34 48 -5 7 -18
22 -27 35 -9 13 -54 77 -100 142 -46 64 -123 175 -172 245 -105 149 -198 275
-207 282 -9 7 -99 129 -99 134 0 3 -13 20 -30 38 -16 18 -30 38 -30 44 0 7 -7
14 -15 18 -8 3 -14 9 -13 13 3 9 -51 84 -69 96 -7 4 -13 13 -13 20 0 7 -14 25
-30 41 -17 16 -30 34 -30 39 0 6 -12 26 -27 46 -15 20 -27 37 -26 38 1 1 -11
16 -28 34 -16 17 -29 37 -29 44 0 7 -7 16 -16 19 -8 3 -13 10 -9 16 3 5 -3 15
-15 22 -11 7 -20 17 -20 21 0 5 -11 23 -25 41 -14 18 -25 38 -25 44 0 7 -7 12
-15 12 -8 0 -15 5 -15 10 0 6 0 12 0 15 0 2 -14 19 -30 37 -17 18 -30 36 -30
40 0 4 -13 22 -30 40 -16 18 -30 36 -30 41 0 10 -28 48 -77 106 -18 21 -33 42
-33 46 0 4 -25 40 -55 80 -30 41 -55 78 -55 83 0 6 -7 12 -15 16 -8 3 -15 11
-15 18 0 6 -11 23 -24 37 -13 15 -32 42 -43 61 -10 19 -31 48 -46 64 -15 16
-27 34 -27 40 0 6 -12 24 -26 39 -22 24 -114 155 -114 162 0 2 -50 76 -111
166 -119 176 -481 720 -621 934 -47 72 -107 168 -135 215 -48 81 -222 367
-255 420 -45 71 -218 370 -230 396 -7 16 -18 35 -25 42 -15 15 -72 113 -92
157 -7 17 -22 46 -32 65 -11 19 -78 154 -151 300 -72 146 -143 290 -158 320
-16 30 -48 100 -73 155 -25 55 -65 144 -91 198 -25 54 -46 100 -46 102 0 2
-22 50 -48 107 -27 57 -56 123 -66 148 -10 25 -21 52 -26 60 -27 54 -151 357
-170 415 -13 39 -29 84 -36 100 -7 17 -26 71 -43 120 -16 50 -62 182 -101 295
-39 113 -77 225 -84 250 -7 25 -18 56 -25 67 -6 12 -11 35 -11 52 0 17 -4 31
-8 31 -5 0 -14 16 -20 36 -9 29 -7 43 8 80 11 24 24 44 29 44 5 0 13 10 17 22
12 40 64 147 73 153 5 3 12 19 16 35 4 17 11 30 16 30 5 0 9 9 9 20 0 11 5 20
10 20 6 0 10 7 10 16 0 20 48 118 69 141 9 10 23 33 30 51 8 18 21 37 31 42 9
5 31 37 49 72 28 56 72 117 124 170 9 10 17 26 17 36 0 9 16 37 35 62 19 25
46 61 59 80 13 20 40 48 60 63 20 16 43 44 51 64 8 19 43 61 77 94 35 32 81
77 103 99 63 65 220 221 262 261 21 21 48 50 59 65 12 16 53 49 92 74 39 25
76 54 82 65 6 11 23 26 38 33 15 6 41 24 57 39 17 16 47 37 69 48 21 11 46 30
56 43 10 12 33 29 52 36 18 8 41 24 50 35 10 12 24 21 32 21 8 0 24 11 37 25
13 13 29 25 36 25 6 0 26 12 44 27 18 15 44 29 58 31 14 2 31 12 39 23 7 10
19 19 26 19 7 0 21 9 31 20 10 11 26 20 36 20 9 0 19 4 21 8 3 8 331 171 416
207 23 10 42 22 42 26 0 9 103 49 128 49 9 0 28 9 42 20 14 11 33 20 43 20 10
0 37 9 59 20 23 11 50 20 60 20 10 0 26 4 36 9 37 19 77 34 86 32 4 -1 18 5
30 12 12 8 40 18 64 22 23 4 42 11 42 16 0 6 4 8 9 4 5 -3 12 -1 15 4 3 4 28
11 55 15 28 4 53 11 56 16 3 6 17 10 30 10 13 0 26 4 30 9 3 5 30 13 60 16 31
4 57 11 60 15 3 5 29 11 58 15 28 4 57 11 62 15 6 4 37 10 69 14 33 4 64 11
70 15 6 5 32 8 59 7 26 -1 47 1 47 5 0 13 63 29 116 29 30 0 54 5 54 10 0 6
24 10 53 11 28 0 86 7 127 15 41 8 125 17 185 20 61 3 117 8 125 11 8 3 40 7
70 9 30 2 70 6 88 9 35 6 727 6 850 0 80 -4 126 -8 332 -31 291 -33 547 -64
595 -73 28 -6 88 -17 135 -25 47 -9 130 -25 185 -36 55 -12 132 -25 170 -31
39 -6 77 -14 86 -19 9 -5 34 -12 55 -15 22 -4 50 -10 64 -15 14 -4 66 -20 115
-35 50 -15 191 -60 315 -101 250 -82 236 -77 270 -88 14 -4 34 -11 45 -16 11
-5 74 -27 140 -50 66 -23 138 -50 160 -59 22 -10 58 -24 80 -31 22 -7 47 -18
55 -25 8 -7 29 -15 45 -18 32 -5 112 -35 160 -61 17 -9 33 -16 36 -16 7 0 170
-77 433 -205 76 -37 160 -79 185 -94 25 -16 107 -61 181 -101 74 -41 137 -77
140 -80 3 -3 20 -12 38 -19 17 -8 32 -16 32 -20 0 -3 14 -12 32 -20 17 -8 39
-20 47 -28 9 -7 20 -13 24 -12 5 0 23 -10 40 -23 18 -13 75 -50 127 -82 161
-100 398 -259 470 -316 21 -17 42 -30 47 -30 4 0 20 -11 35 -25 15 -14 42 -35
61 -48 40 -27 122 -89 181 -137 24 -19 78 -62 121 -95 43 -33 110 -87 149
-120 39 -33 87 -72 106 -86 19 -15 53 -44 75 -65 23 -22 67 -61 99 -89 137
-117 599 -564 807 -781 55 -58 203 -223 239 -267 5 -7 27 -33 47 -59 21 -27
64 -81 96 -120 73 -91 359 -475 392 -527 6 -8 48 -74 95 -146 47 -72 96 -150
110 -174 14 -23 31 -49 38 -56 6 -7 12 -16 12 -20 0 -4 14 -26 30 -50 17 -24
30 -47 30 -51 0 -4 6 -15 14 -23 17 -19 70 -111 96 -167 11 -23 27 -47 35 -54
8 -7 15 -19 15 -27 0 -8 12 -35 28 -61 15 -26 32 -56 39 -67 11 -19 39 -75 69
-140 8 -16 19 -37 24 -45 15 -23 150 -309 150 -318 0 -16 22 -30 41 -25 13 4
19 14 19 34 0 34 -22 121 -43 169 -8 19 -29 76 -45 125 -36 106 -68 195 -88
248 -27 70 -43 112 -69 182 -15 39 -43 108 -62 155 -19 47 -49 119 -66 160
-16 41 -43 104 -60 140 -16 36 -35 81 -42 100 -7 19 -43 98 -80 175 -37 77
-85 178 -107 225 -42 89 -112 231 -170 340 -101 189 -132 246 -140 257 -5 6
-21 35 -36 65 -28 52 -189 322 -368 614 -88 143 -122 195 -327 496 -48 70 -87
132 -87 138 0 5 -9 14 -19 19 -10 6 -24 25 -30 42 -6 17 -22 43 -36 57 -14 14
-32 39 -40 56 -8 17 -28 45 -44 61 -15 17 -40 49 -54 71 -14 23 -31 47 -39 55
-7 8 -54 68 -103 134 -122 162 -335 408 -624 720 -103 111 -635 638 -751 743
-175 159 -386 341 -576 498 -241 198 -701 545 -864 651 -80 52 -157 103 -172
114 -15 10 -30 19 -34 19 -4 0 -22 11 -40 25 -18 14 -36 25 -40 25 -4 0 -15 6
-23 14 -9 8 -38 26 -66 41 -27 16 -61 39 -74 51 -13 13 -30 24 -37 24 -7 0
-44 20 -81 44 -37 24 -122 74 -188 111 -66 37 -126 71 -132 77 -7 6 -13 7 -13
2 0 -5 -4 -4 -8 2 -10 15 -130 84 -146 84 -8 0 -19 7 -26 15 -7 8 -18 15 -25
15 -6 0 -22 9 -35 20 -13 11 -47 32 -77 46 -29 15 -56 30 -59 35 -3 5 -14 9
-24 9 -10 0 -20 4 -22 8 -6 16 -673 340 -783 380 -38 14 -84 33 -101 43 -17 9
-46 20 -65 24 -19 4 -54 18 -79 30 -79 40 -120 55 -145 55 -14 0 -25 4 -25 9
0 5 -14 13 -32 16 -17 4 -56 20 -87 36 -30 16 -65 29 -76 29 -12 0 -26 5 -31
10 -6 6 -20 12 -32 15 -12 2 -36 10 -54 19 -86 39 -165 68 -183 67 -10 0 -24
4 -30 9 -6 5 -33 14 -60 20 -28 6 -69 20 -92 30 -24 11 -55 20 -70 20 -14 0
-34 6 -42 14 -9 8 -36 17 -61 19 -25 3 -62 13 -82 21 -21 9 -47 16 -58 16 -11
0 -20 4 -20 9 0 5 -15 11 -32 14 -63 11 -153 33 -181 45 -16 7 -33 12 -38 12
-5 0 -9 4 -9 9 0 4 -27 11 -60 14 -34 4 -69 11 -79 17 -11 5 -39 11 -63 13
-23 2 -70 13 -103 24 -33 12 -88 26 -122 33 -35 7 -63 17 -63 21 0 5 -19 9
-41 9 -23 0 -80 9 -128 19 -47 11 -133 29 -191 41 -58 12 -126 28 -152 36 -26
8 -58 14 -72 14 -14 0 -28 5 -32 11 -3 6 -20 9 -38 6 -35 -5 -198 20 -206 32
-3 4 -34 11 -70 15 -36 5 -99 12 -140 17 -41 5 -87 10 -102 10 -15 0 -30 4
-33 9 -4 6 -30 10 -58 10 -29 0 -70 5 -92 10 -22 6 -89 14 -150 20 -60 5 -123
12 -140 15 -16 3 -59 7 -95 11 -36 3 -110 10 -165 15 -55 6 -188 14 -295 19
-230 11 -1213 10 -1350 0z"/>
<path d="M6258 23582 c-16 -9 -28 -24 -28 -34 0 -20 -19 -35 -29 -22 -10 15
-41 13 -41 -2 0 -8 -4 -14 -10 -14 -5 0 -10 -9 -10 -20 0 -16 -5 -19 -24 -14
-18 4 -25 1 -29 -17 -4 -16 -11 -20 -26 -16 -22 6 -61 -25 -61 -49 0 -12 -6
-15 -25 -10 -25 6 -55 -11 -55 -32 0 -5 -6 -15 -14 -21 -11 -9 -15 -9 -18 1
-7 19 -58 -18 -58 -42 0 -16 -5 -19 -30 -14 -27 6 -31 3 -45 -30 -13 -30 -19
-35 -38 -31 -25 6 -59 -16 -55 -36 2 -9 -6 -14 -19 -14 -24 -1 -57 -27 -86
-69 -14 -21 -22 -24 -36 -16 -14 7 -23 4 -40 -14 -11 -12 -21 -28 -21 -35 0
-7 -8 -11 -17 -10 -24 4 -63 -22 -63 -41 0 -20 -40 -45 -67 -41 -17 2 -26 -5
-35 -26 -16 -36 -54 -73 -65 -63 -12 11 -53 -7 -53 -24 0 -19 -57 -79 -62 -65
-5 16 -65 -22 -80 -51 -19 -39 -44 -59 -65 -54 -18 5 -73 -35 -73 -54 0 -4 -6
-17 -14 -27 -11 -15 -17 -17 -28 -8 -11 9 -18 6 -33 -18 -11 -16 -24 -29 -28
-29 -15 0 -66 -43 -61 -52 3 -4 0 -8 -5 -8 -6 0 -11 -6 -11 -13 0 -19 -33 -47
-56 -47 -20 0 -67 -43 -161 -147 -40 -45 -59 -60 -68 -53 -8 7 -34 -12 -88
-63 -42 -40 -77 -78 -77 -84 0 -17 -180 -188 -197 -186 -8 0 -19 -11 -26 -25
-18 -44 -79 -103 -93 -91 -11 9 -26 -9 -28 -37 -2 -19 -66 -85 -77 -79 -13 9
-39 -13 -39 -34 -1 -23 -59 -84 -74 -78 -17 7 -36 -12 -36 -34 0 -16 -120
-141 -143 -148 -19 -6 -187 -185 -187 -200 0 -3 -38 -46 -85 -96 -47 -49 -85
-95 -85 -102 0 -13 -24 -46 -48 -67 -44 -36 -72 -68 -67 -76 5 -8 -27 -44
-104 -115 -18 -16 -35 -42 -38 -56 -3 -15 -24 -43 -49 -63 -24 -20 -44 -45
-44 -55 0 -22 -37 -71 -53 -71 -13 0 -57 -60 -57 -77 0 -6 -15 -23 -34 -39
-18 -16 -36 -39 -40 -50 -4 -12 -27 -44 -51 -70 -25 -27 -45 -53 -45 -57 0
-16 -37 -56 -45 -49 -5 4 -5 -1 -2 -10 3 -9 3 -18 -1 -20 -7 -3 -34 -43 -93
-137 -18 -30 -46 -68 -61 -85 -15 -17 -28 -39 -28 -49 0 -10 -8 -21 -19 -24
-11 -3 -24 -21 -32 -45 -7 -23 -21 -43 -31 -46 -10 -2 -20 -17 -24 -36 -3 -18
-19 -45 -35 -60 -16 -15 -29 -34 -29 -42 0 -19 -27 -63 -57 -92 -13 -13 -23
-31 -23 -42 0 -10 -16 -39 -35 -64 -19 -26 -35 -50 -35 -55 0 -5 -6 -11 -14
-14 -8 -3 -17 -24 -21 -47 -4 -22 -13 -47 -21 -54 -8 -8 -14 -20 -14 -26 0 -7
-18 -30 -40 -53 -22 -22 -38 -42 -36 -45 6 -5 -19 -54 -40 -82 -7 -8 -15 -31
-19 -50 -4 -19 -20 -58 -36 -87 -16 -29 -29 -59 -29 -68 0 -8 -7 -18 -15 -21
-8 -4 -15 -16 -15 -29 0 -13 -7 -25 -15 -29 -8 -3 -15 -17 -15 -31 0 -15 -6
-25 -14 -25 -8 0 -18 -10 -22 -22 -3 -13 -15 -31 -25 -41 -10 -9 -16 -24 -12
-33 3 -8 -2 -21 -13 -28 -15 -12 -16 -16 -5 -30 11 -13 10 -20 -7 -43 -10 -15
-17 -33 -15 -39 2 -6 -8 -16 -22 -22 -15 -7 -23 -17 -19 -26 3 -9 -3 -20 -14
-27 -16 -10 -18 -17 -11 -31 14 -26 -16 -104 -42 -111 -20 -5 -26 -32 -9 -42
7 -4 4 -18 -6 -38 -9 -18 -20 -38 -23 -46 -4 -7 -10 -12 -15 -10 -14 7 -29
-32 -17 -44 17 -17 13 -35 -9 -42 -11 -3 -20 -14 -20 -24 0 -9 -6 -26 -14 -37
-9 -11 -12 -30 -9 -46 4 -21 0 -32 -18 -47 -20 -16 -21 -21 -10 -35 11 -13 11
-19 1 -31 -7 -8 -19 -15 -26 -15 -16 0 -18 -22 -4 -36 15 -15 1 -44 -21 -44
-16 0 -17 -4 -7 -32 10 -28 9 -34 -13 -52 -14 -12 -24 -31 -23 -46 0 -14 -5
-32 -11 -40 -17 -21 -25 -59 -14 -66 18 -11 10 -44 -11 -44 -22 0 -26 -20 -10
-50 8 -15 5 -23 -16 -39 -15 -12 -23 -21 -18 -21 4 0 3 -5 -4 -12 -9 -9 -8
-16 5 -30 13 -14 13 -20 3 -33 -7 -8 -19 -15 -26 -15 -17 0 -19 -51 -4 -66 13
-13 2 -44 -15 -44 -19 0 -30 -57 -15 -75 10 -12 10 -18 0 -30 -7 -8 -16 -12
-21 -9 -5 3 -9 2 -10 -3 0 -4 -2 -18 -3 -31 -2 -13 1 -25 6 -28 17 -11 7 -45
-15 -53 -21 -8 -23 -15 -22 -60 1 -32 -3 -56 -12 -62 -16 -14 -17 -63 -2 -91
10 -18 8 -24 -12 -39 -24 -18 -35 -61 -23 -88 11 -23 13 -51 3 -51 -4 0 -14
-7 -22 -15 -16 -15 -16 -102 -1 -126 4 -7 -3 -19 -16 -29 -17 -13 -24 -30 -28
-69 -3 -34 -1 -51 7 -51 19 0 12 -45 -10 -58 -19 -12 -21 -21 -17 -105 3 -83
1 -92 -15 -89 -9 2 -17 -1 -16 -5 1 -4 0 -10 -1 -13 -6 -15 -4 -160 2 -160 17
0 7 -40 -12 -50 -19 -10 -20 -20 -19 -113 1 -72 -3 -116 -15 -150 -16 -49 -24
-266 -9 -281 15 -14 11 -38 -8 -43 -10 -3 -16 -9 -13 -14 3 -5 1 -9 -5 -9 -5
0 -8 -11 -5 -24 2 -14 0 -28 -6 -31 -7 -4 -10 -271 -10 -781 0 -677 2 -778 15
-798 14 -21 14 -24 0 -36 -12 -10 -15 -36 -15 -125 0 -101 2 -113 18 -117 25
-7 33 -88 25 -242 -6 -108 -5 -118 13 -130 17 -12 19 -26 18 -135 -1 -97 1
-121 12 -121 8 0 14 -3 15 -7 0 -5 2 -19 4 -33 1 -14 -1 -31 -5 -39 -4 -8 -3
-23 3 -33 8 -12 9 -23 2 -35 -18 -32 -8 -164 15 -187 5 -5 10 -45 10 -88 0
-63 3 -78 15 -78 20 0 30 -27 17 -43 -20 -23 -9 -127 12 -127 17 0 29 -28 19
-43 -4 -6 -8 -32 -9 -56 -1 -36 4 -49 23 -67 21 -19 23 -26 13 -44 -22 -41 -4
-98 35 -114 6 -2 5 -11 -3 -25 -16 -27 -16 -76 1 -93 7 -7 12 -35 12 -61 0
-39 4 -50 23 -63 17 -11 21 -20 16 -37 -11 -36 -11 -60 2 -87 6 -14 14 -44 17
-68 3 -23 11 -50 18 -59 7 -8 12 -30 10 -48 -1 -19 5 -45 14 -58 9 -14 15 -31
14 -39 -4 -33 3 -49 26 -58 22 -8 24 -13 15 -35 -14 -38 -12 -75 4 -75 22 0
41 -29 28 -42 -19 -19 -14 -48 8 -48 21 0 29 -33 11 -45 -13 -7 -5 -46 10 -56
11 -7 16 -26 18 -71 1 -10 7 -18 15 -18 18 0 33 -43 17 -48 -19 -6 -12 -25 16
-50 19 -15 24 -25 16 -28 -20 -9 -15 -45 6 -51 26 -7 34 -30 14 -42 -14 -8
-12 -13 16 -39 21 -18 29 -32 22 -36 -19 -12 -12 -43 10 -49 18 -5 21 -11 16
-37 -4 -20 -1 -39 8 -53 14 -21 15 -26 15 -48 0 -5 4 -8 8 -5 4 2 14 1 21 -3
10 -7 10 -13 2 -29 -17 -31 -13 -52 8 -52 24 0 35 -28 19 -47 -10 -12 -9 -18
6 -29 11 -7 16 -20 13 -28 -4 -10 4 -24 23 -37 24 -18 27 -25 19 -41 -7 -12
-7 -24 -1 -31 5 -7 12 -24 16 -38 3 -15 15 -29 26 -32 13 -3 20 -13 20 -30 0
-13 7 -30 15 -37 11 -9 12 -17 5 -30 -7 -14 -6 -23 5 -34 8 -8 15 -24 15 -36
0 -13 8 -24 20 -27 13 -3 20 -14 20 -28 0 -13 7 -25 15 -29 8 -3 15 -16 15
-30 0 -13 7 -27 16 -30 8 -3 14 -14 12 -25 -2 -10 5 -28 16 -40 14 -16 16 -24
7 -34 -9 -11 -8 -17 4 -27 8 -7 15 -23 15 -36 0 -13 4 -24 8 -24 4 0 21 -28
36 -62 16 -33 38 -71 50 -82 13 -12 33 -41 46 -66 14 -25 30 -52 36 -60 6 -8
14 -31 18 -51 4 -21 13 -42 21 -49 8 -7 15 -18 15 -25 0 -7 9 -15 20 -18 11
-3 20 -14 20 -25 0 -11 7 -25 15 -32 8 -7 15 -21 15 -32 0 -28 41 -98 56 -98
18 0 35 -35 28 -54 -4 -11 4 -21 24 -33 21 -12 33 -28 37 -52 7 -39 43 -91 62
-91 7 0 14 -6 14 -12 4 -42 17 -66 40 -73 12 -4 19 -16 19 -31 0 -13 9 -33 20
-44 11 -11 20 -23 20 -28 0 -4 10 -12 23 -17 12 -6 21 -17 19 -26 -2 -16 21
-44 57 -69 12 -8 26 -32 32 -52 7 -28 16 -39 34 -44 14 -3 22 -10 19 -15 -7
-12 13 -47 47 -84 16 -16 29 -33 29 -37 0 -5 6 -8 14 -8 17 0 25 -11 31 -42 3
-12 11 -26 20 -30 8 -5 15 -13 15 -17 0 -11 69 -81 80 -81 15 0 110 -110 110
-128 0 -30 419 -447 446 -444 14 2 36 -15 72 -55 28 -32 65 -72 82 -89 16 -16
30 -36 30 -43 0 -7 4 -10 9 -6 5 3 13 0 16 -6 4 -5 14 -8 22 -4 18 6 53 -21
53 -42 0 -7 5 -13 10 -13 6 0 10 -7 10 -17 0 -9 3 -14 6 -10 3 3 15 -4 25 -14
12 -12 27 -18 38 -14 11 3 26 -4 41 -20 13 -14 20 -25 15 -25 -5 0 9 -16 30
-35 29 -26 45 -33 63 -28 12 3 22 1 21 -3 -4 -24 4 -36 43 -64 31 -22 44 -27
49 -18 6 9 10 7 15 -7 11 -30 57 -65 70 -54 8 6 15 0 24 -21 13 -31 37 -44 64
-34 11 4 16 1 16 -10 0 -24 34 -57 56 -54 10 2 20 -1 22 -7 8 -25 37 -46 58
-41 21 6 42 -9 42 -28 0 -5 13 -16 28 -25 16 -9 35 -22 43 -29 8 -8 24 -11 37
-8 17 5 24 2 24 -7 0 -18 32 -47 52 -47 9 0 19 -7 22 -16 4 -10 15 -14 32 -12
17 2 31 -5 44 -22 17 -21 21 -23 29 -10 8 12 11 11 17 -5 10 -27 26 -36 42
-23 10 9 14 6 19 -10 3 -14 27 -33 64 -51 32 -17 66 -35 76 -40 71 -40 151
-72 170 -68 17 3 23 0 23 -14 0 -14 6 -17 30 -14 24 3 30 0 30 -15 0 -23 20
-26 38 -8 10 10 14 8 18 -10 4 -12 14 -22 25 -22 10 0 21 -5 24 -11 12 -18 49
-27 68 -17 15 8 20 5 24 -11 3 -12 13 -21 23 -21 10 0 20 -6 23 -14 6 -16 77
-27 77 -11 0 5 6 2 13 -7 8 -9 20 -18 27 -20 8 -2 21 -9 28 -15 21 -20 63 -27
72 -13 5 9 12 6 23 -10 12 -18 23 -21 48 -18 24 4 33 1 36 -13 6 -20 35 -30
53 -19 17 11 40 1 40 -16 0 -9 11 -14 28 -14 15 0 36 -6 47 -14 23 -15 95 -26
95 -14 0 4 5 8 10 8 6 0 10 -6 10 -14 0 -22 17 -28 41 -15 18 9 25 7 46 -15
20 -22 31 -26 64 -22 28 4 41 1 47 -11 11 -19 92 -28 92 -10 0 7 8 2 18 -9 19
-25 118 -40 126 -20 3 7 8 6 15 -4 5 -8 7 -18 5 -22 -6 -9 -8 -9 64 -12 28 -2
52 1 52 6 0 17 18 7 23 -12 5 -19 12 -20 84 -18 65 2 83 0 97 -15 14 -14 35
-17 111 -17 63 0 95 -4 97 -12 5 -15 909 -18 921 -3 4 6 10 6 15 -2 12 -19 74
-6 94 19 11 15 18 18 18 9 0 -12 19 -13 108 -7 59 3 109 11 110 16 2 6 31 10
64 10 51 0 61 3 65 20 5 20 23 28 23 11 0 -7 78 -7 88 0 1 1 8 2 15 3 6 1 11
7 10 14 -3 13 3 15 64 12 33 -1 44 3 53 20 9 16 15 19 23 11 6 -6 21 -11 34
-11 26 0 73 20 73 31 0 4 9 6 20 4 28 -5 50 4 50 22 0 8 8 13 18 12 41 -4 61
2 67 21 5 17 9 18 26 7 16 -10 25 -9 50 5 17 10 37 18 45 18 8 0 14 7 14 16 0
11 8 15 28 14 51 -4 62 0 62 20 0 16 5 19 30 14 23 -5 30 -3 30 10 0 12 7 14
29 10 21 -5 34 -1 50 15 12 12 26 19 32 16 5 -4 22 1 37 11 15 10 33 17 40 16
7 -2 15 4 18 13 3 8 15 15 26 15 10 0 17 4 14 9 -3 4 12 14 33 21 22 7 45 23
52 36 9 18 18 22 36 18 18 -5 23 -2 23 13 0 28 10 34 32 22 22 -12 46 7 62 46
5 12 10 15 13 8 5 -14 35 -5 46 14 4 7 14 13 22 13 22 0 85 60 85 81 0 10 5
19 10 19 6 0 10 -4 10 -10 0 -19 80 32 86 56 7 26 49 58 68 51 12 -5 106 83
106 99 0 15 68 76 77 71 14 -9 36 9 40 31 3 22 122 152 138 152 17 0 85 79 85
99 0 10 7 24 15 31 8 7 15 19 15 27 0 8 5 11 10 8 6 -3 10 -2 10 4 0 6 8 8 18
4 9 -3 14 -2 10 2 -5 5 1 15 12 22 11 8 18 19 15 24 -4 5 -2 9 4 9 5 0 8 9 6
20 -3 13 2 23 13 27 20 7 82 72 82 86 0 5 14 26 30 47 17 21 30 45 30 54 0 9
4 16 10 16 5 0 7 7 3 15 -3 9 1 23 10 33 8 9 17 26 19 37 2 12 13 21 26 23 12
2 20 7 17 12 -3 5 2 15 10 24 9 9 18 26 20 38 3 13 9 24 15 26 5 2 10 12 10
22 0 11 8 24 18 29 9 6 13 11 9 11 -5 0 1 16 12 36 18 29 19 39 9 51 -10 13
-8 19 15 35 16 12 27 29 27 44 0 13 5 24 11 24 7 0 9 12 5 35 -6 29 -4 37 11
42 27 10 33 24 20 46 -10 16 -8 21 11 34 15 10 22 26 22 47 0 17 7 40 15 50 8
11 15 37 15 57 0 21 6 44 13 51 11 12 16 97 6 123 -3 9 6 38 31 100 5 11 8 53
8 93 0 42 5 79 11 85 7 7 11 65 11 167 0 144 -1 156 -20 168 -20 12 -28 52
-11 52 20 0 -3 186 -26 212 -8 9 -12 22 -8 27 11 19 14 51 4 51 -5 0 -9 17 -9
39 0 21 -6 44 -13 50 -14 11 -15 44 -3 73 9 21 0 38 -20 38 -13 0 -14 9 -9 54
6 48 5 54 -14 59 -21 5 -29 41 -12 51 12 8 3 42 -15 57 -8 6 -14 26 -14 45 0
18 -4 36 -10 39 -5 3 -10 19 -10 34 0 16 -6 34 -14 41 -8 6 -16 24 -18 38 -2
15 -9 27 -16 27 -8 0 -20 15 -27 32 -12 29 -12 33 0 33 8 0 15 5 15 11 0 5 -4
8 -10 4 -10 -6 -50 29 -50 45 0 6 7 13 15 16 8 4 15 11 15 16 0 6 -7 7 -16 4
-11 -4 -14 0 -12 17 2 15 -2 22 -14 22 -30 0 -41 20 -26 45 10 17 10 24 1 27
-6 2 -24 20 -39 40 -20 27 -28 50 -30 85 -1 28 -9 57 -18 67 -9 10 -16 27 -16
38 0 12 -7 23 -15 27 -8 3 -15 14 -15 25 0 10 -7 21 -15 25 -8 3 -12 12 -9 21
5 11 -1 15 -20 15 -22 0 -26 4 -26 30 0 19 -7 33 -20 40 -11 6 -18 15 -15 20
3 6 -5 25 -19 43 -15 19 -26 39 -26 45 0 7 -4 12 -9 12 -5 0 -16 16 -25 35 -9
19 -21 37 -25 40 -5 3 -12 18 -16 34 -3 16 -13 32 -21 35 -8 3 -23 25 -33 48
-10 24 -26 49 -35 57 -9 7 -16 22 -16 32 0 11 -4 19 -10 19 -5 0 -10 13 -10
29 0 29 -12 43 -39 48 -17 2 -31 22 -31 45 0 9 -11 25 -25 35 -14 10 -27 28
-30 40 -2 13 -15 38 -29 56 -14 19 -23 36 -20 40 9 9 -16 47 -31 47 -8 0 -21
13 -29 28 -8 15 -30 46 -50 68 -23 26 -34 46 -31 61 3 16 -5 27 -31 42 -19 11
-35 28 -35 38 -1 10 -2 23 -3 29 -2 16 -33 44 -49 44 -18 0 -50 47 -52 77 -1
22 -35 63 -53 63 -13 0 -42 35 -42 51 0 8 -22 33 -49 56 -29 25 -54 57 -61 78
-6 19 -15 35 -19 35 -19 0 -62 52 -68 82 -6 36 -31 71 -44 63 -4 -3 -14 2 -22
10 -9 8 -20 15 -25 15 -10 0 -28 56 -24 72 1 4 -11 14 -27 22 -35 18 -83 74
-75 87 10 17 -7 49 -26 49 -11 0 -33 13 -50 30 -17 16 -37 30 -45 30 -13 0
-13 3 -3 19 10 16 9 23 -4 38 -8 10 -13 25 -10 33 2 8 1 12 -3 7 -13 -11 -45
23 -45 48 0 12 -13 31 -29 43 -16 12 -31 32 -33 44 -2 13 -9 22 -16 20 -18 -3
-52 16 -52 30 0 6 8 17 17 24 17 12 17 13 -3 14 -30 0 -63 35 -57 60 3 11 0
20 -6 20 -6 0 -11 -7 -11 -15 0 -20 -19 -19 -27 0 -3 9 2 22 12 29 17 12 16
13 -7 19 -18 5 -24 13 -24 29 1 13 -4 22 -11 20 -7 -1 -13 2 -13 8 0 6 -5 9
-12 8 -6 -2 -14 6 -16 17 -2 11 -9 25 -16 30 -6 6 -11 19 -11 30 0 11 -7 20
-15 21 -35 2 -40 5 -40 21 0 9 -12 29 -26 44 -15 15 -28 39 -29 52 -4 30 -23
67 -35 67 -12 0 -66 80 -72 105 -2 11 -11 19 -20 19 -10 -1 -14 5 -11 17 3 11
1 19 -5 19 -6 0 -14 9 -17 20 -3 11 -15 20 -26 20 -10 0 -18 4 -17 9 4 14 -23
52 -74 103 -35 35 -46 53 -44 72 3 20 -1 26 -15 26 -11 0 -19 6 -19 13 0 7 -9
23 -20 35 -11 12 -20 30 -20 41 0 11 -6 24 -13 28 -19 12 -69 82 -71 101 -2 9
-8 18 -14 20 -7 2 -10 8 -7 12 3 5 -4 14 -15 20 -11 6 -18 15 -15 20 3 6 -13
28 -37 51 -23 22 -43 46 -44 52 0 7 -2 20 -2 30 -1 10 -10 17 -21 17 -11 0
-23 5 -26 10 -3 6 -1 10 5 10 6 0 8 5 5 10 -3 6 -15 10 -26 10 -13 0 -20 6
-18 18 1 9 0 26 -1 37 l-1 20 -9 -20 c-6 -17 -9 -14 -15 17 -4 21 -6 41 -5 45
1 4 -8 10 -19 15 -12 4 -21 16 -21 26 0 19 -34 62 -50 62 -4 0 -7 8 -6 17 2
10 -10 29 -26 43 -15 13 -28 31 -28 38 0 8 -11 27 -25 44 -14 16 -25 35 -25
42 0 7 -11 23 -25 36 -14 13 -25 34 -25 46 0 13 -8 29 -17 36 -10 7 -19 19
-21 26 -1 6 -11 21 -22 32 -11 11 -22 30 -26 43 -3 14 -16 30 -30 37 -13 8
-24 17 -24 22 0 5 5 6 10 3 6 -3 10 -2 10 3 0 6 -12 13 -26 16 -18 5 -24 12
-20 22 7 19 -12 57 -25 49 -5 -4 -9 -3 -10 2 -4 41 -13 70 -25 84 -8 8 -14 21
-14 27 0 6 -9 14 -20 17 -11 3 -21 15 -21 26 -1 10 -3 24 -4 29 -1 6 -3 14 -4
19 0 5 -11 11 -23 13 -17 2 -23 10 -23 30 -1 15 -11 38 -23 51 -12 13 -22 32
-22 43 0 10 -11 28 -25 38 -13 10 -22 22 -20 26 8 13 -14 62 -24 56 -11 -7
-38 33 -43 65 -1 13 -12 34 -23 47 -11 13 -21 35 -22 48 -1 14 -12 34 -25 44
-13 11 -20 19 -15 20 4 0 -9 22 -28 50 -19 27 -35 56 -35 63 0 7 -10 24 -22
37 -13 14 -23 28 -23 31 0 4 -3 11 -7 14 -4 4 -2 17 4 28 8 16 8 19 -4 14 -23
-8 -39 7 -43 43 -3 18 -14 43 -25 55 -11 12 -17 25 -13 28 3 4 -3 18 -15 30
-12 13 -19 27 -15 30 3 4 0 7 -8 7 -12 0 -12 2 1 10 11 7 9 11 -12 19 -18 7
-28 20 -33 43 -4 18 -14 41 -22 50 -8 9 -13 25 -11 34 2 10 -9 31 -24 48 -15
16 -27 32 -26 35 2 20 -4 31 -16 31 -10 0 -13 8 -10 25 3 16 -1 27 -10 31 -8
3 -18 19 -21 36 -5 23 -11 29 -26 25 -11 -3 -19 0 -19 8 0 7 -7 25 -14 41 -8
15 -13 31 -10 36 3 4 0 8 -6 8 -6 0 -16 14 -21 30 -6 17 -15 30 -20 30 -5 0
-9 15 -9 33 0 17 -7 41 -15 51 -8 10 -12 22 -10 26 3 5 -2 10 -10 14 -8 3 -15
13 -15 23 0 10 -9 33 -20 51 -11 18 -20 39 -20 47 0 8 -4 15 -9 15 -5 0 -14
14 -20 31 -14 40 -14 39 7 33 12 -4 11 0 -6 15 -13 11 -21 25 -17 30 3 6 -4
20 -15 31 -12 12 -19 28 -16 36 3 7 -3 18 -14 24 -11 6 -20 20 -20 31 0 11 -7
22 -15 25 -10 4 -13 14 -9 30 4 14 2 25 -5 25 -26 3 -30 4 -36 11 -12 11 -23
78 -14 78 5 0 9 11 9 25 0 14 -3 24 -7 24 -30 -5 -43 3 -43 25 0 13 -7 26 -15
30 -8 3 -15 15 -15 26 0 12 -7 28 -15 37 -9 8 -13 23 -10 33 3 10 1 21 -4 25
-6 3 -8 21 -5 40 5 31 3 34 -23 37 -24 3 -28 7 -25 31 2 16 -2 35 -9 43 -6 7
-9 20 -6 28 3 8 -4 18 -19 25 -15 7 -24 19 -24 34 0 12 -7 33 -16 45 -8 12
-12 27 -9 33 4 5 -1 19 -11 30 -9 10 -17 32 -16 49 0 16 -4 32 -9 35 -5 4 -6
17 -3 30 5 20 1 27 -20 35 -20 7 -26 16 -26 39 0 15 -6 34 -14 40 -9 7 -17 42
-21 86 -5 49 -12 76 -21 79 -9 3 -14 21 -14 46 0 28 -4 40 -14 40 -11 0 -14
11 -12 45 2 36 -1 45 -13 43 -10 -2 -16 8 -19 37 -2 22 -9 43 -15 47 -6 4 -10
25 -8 49 2 34 0 41 -12 36 -9 -3 -20 0 -25 6 -14 18 -34 98 -34 135 1 17 -3
32 -7 32 -16 0 -30 47 -18 59 8 8 7 14 -5 23 -17 14 -53 126 -61 191 -3 20 -9
43 -15 50 -5 6 -9 19 -9 27 0 8 -8 49 -17 90 -10 41 -19 100 -20 131 -2 30 -9
66 -16 79 -9 18 -10 25 -1 28 16 5 14 29 -3 39 -17 9 -39 93 -25 93 17 0 9 28
-8 33 -17 4 -17 5 0 6 21 1 23 19 2 27 -10 4 -14 16 -11 40 3 20 0 34 -6 34
-6 0 -8 12 -5 29 4 18 2 31 -5 33 -7 3 -12 32 -12 79 0 54 -5 77 -16 86 -13
11 -13 12 4 13 19 0 19 1 1 20 -13 14 -18 35 -18 63 1 23 -5 65 -14 92 -10 30
-16 81 -16 128 1 56 -2 80 -12 83 -16 7 -13 108 4 128 7 9 8 17 2 20 -5 3 -7
15 -4 26 3 13 0 20 -8 20 -11 0 -15 41 -17 212 -5 468 0 697 16 707 19 12 29
239 12 271 -11 21 -10 26 9 42 18 13 23 31 27 78 3 35 0 70 -7 82 -10 18 -8
24 12 39 18 13 23 28 24 65 1 27 -3 57 -9 67 -9 14 -7 21 10 35 28 22 40 85
20 101 -17 14 -11 41 9 41 17 0 25 23 25 70 0 20 6 43 14 49 8 7 14 20 14 29
-1 29 12 82 24 102 10 15 10 22 0 32 -19 19 -14 42 13 66 16 14 25 32 25 51 0
16 6 34 14 40 14 12 10 57 -5 67 -11 6 9 27 34 37 19 7 22 22 7 32 -17 11 -11
43 10 50 21 7 25 22 11 44 -13 20 -2 41 20 41 13 0 19 7 19 24 0 14 6 31 14
39 10 10 12 17 4 25 -12 12 -2 66 11 58 5 -3 15 1 22 10 10 13 10 17 -2 24
-12 8 -11 13 3 37 16 28 18 33 18 53 0 6 12 15 26 20 14 6 23 14 20 19 -4 5 1
16 9 24 8 9 15 24 15 34 0 10 7 28 15 40 9 13 11 24 6 28 -10 5 -4 34 8 45 13
11 41 73 41 91 0 10 6 19 13 19 7 0 13 10 14 21 1 12 9 29 18 39 10 11 14 23
11 28 -3 5 1 15 9 22 8 7 15 9 15 5 0 -4 7 -2 15 5 8 7 13 16 10 20 -3 4 1 10
9 13 8 3 17 25 21 49 4 24 12 49 18 57 6 7 16 23 22 35 6 11 19 20 28 20 11
-1 17 6 18 20 1 36 7 59 18 65 5 4 14 19 20 34 6 15 17 27 26 27 9 0 15 9 15
25 0 30 -30 34 -72 7z m182 -7007 c0 -8 -7 -15 -16 -15 -14 0 -14 3 -4 15 7 8
14 15 16 15 2 0 4 -7 4 -15z m30 -60 c0 -8 -4 -15 -10 -15 -5 0 -10 7 -10 15
0 8 5 15 10 15 6 0 10 -7 10 -15z m980 -1845 c0 -5 -2 -10 -4 -10 -3 0 -8 5
-11 10 -3 6 -1 10 4 10 6 0 11 -4 11 -10z m1678 -2481 c-2 -6 -8 -10 -13 -10
-5 0 -11 4 -13 10 -2 6 4 11 13 11 9 0 15 -5 13 -11z"/>
<path d="M17747 20234 c-4 -5 -22 -9 -40 -10 -18 -1 -38 -2 -44 -3 -7 -1 -13
-8 -13 -16 0 -16 -15 -21 -23 -7 -3 4 -48 6 -101 4 -73 -3 -96 -7 -96 -17 0
-19 -18 -29 -33 -17 -7 5 -34 8 -62 7 -63 -4 -79 -8 -98 -23 -8 -7 -31 -11
-50 -9 -30 3 -37 0 -47 -21 -8 -19 -14 -22 -22 -14 -13 13 -57 16 -74 4 -6 -4
-14 -16 -18 -27 -7 -19 -8 -19 -17 -2 -6 10 -15 14 -22 10 -7 -4 -25 -7 -42
-8 -20 0 -30 -5 -30 -15 0 -11 -10 -14 -37 -12 -29 3 -37 -1 -43 -17 -3 -12
-13 -21 -21 -21 -9 0 -12 5 -8 12 5 8 2 9 -10 5 -10 -4 -23 -7 -31 -7 -7 0
-15 -9 -18 -21 -4 -16 -9 -19 -22 -11 -26 14 -62 3 -69 -21 -4 -14 -9 -18 -13
-11 -12 16 -57 10 -61 -8 -4 -19 -29 -31 -36 -19 -7 10 -54 2 -62 -10 -3 -5
-14 -9 -25 -9 -10 0 -18 -3 -18 -7 4 -25 -4 -33 -31 -33 -20 0 -30 -5 -30 -15
0 -17 -16 -20 -25 -5 -9 14 -32 1 -39 -22 -4 -18 -7 -19 -20 -9 -13 11 -17 9
-26 -13 -8 -23 -13 -25 -29 -16 -27 14 -31 13 -31 -10 0 -17 -6 -20 -27 -18
-15 2 -28 -1 -28 -7 -1 -24 -16 -35 -35 -25 -13 7 -22 6 -32 -3 -7 -7 -28 -22
-45 -32 -18 -11 -33 -27 -33 -36 0 -12 -7 -15 -25 -11 -14 2 -32 -2 -41 -9 -9
-7 -25 -18 -37 -24 -11 -5 -25 -19 -31 -29 -24 -43 -43 -57 -68 -51 -20 5 -27
0 -44 -30 -13 -25 -24 -35 -36 -32 -17 5 -64 -36 -123 -107 -21 -25 -35 -34
-50 -30 -14 3 -29 -5 -48 -26 -16 -16 -33 -30 -38 -30 -5 0 -9 -4 -9 -8 0 -5
-52 -60 -115 -123 -105 -104 -124 -129 -131 -166 -3 -19 -66 -83 -81 -83 -13
0 -35 -33 -31 -47 5 -16 -35 -63 -53 -63 -11 0 -19 -4 -19 -10 0 -5 -14 -23
-30 -40 -17 -17 -28 -35 -25 -41 4 -5 -7 -21 -23 -37 -17 -15 -33 -43 -37 -62
-12 -61 -16 -70 -34 -70 -11 0 -26 -15 -37 -37 -10 -21 -22 -40 -26 -43 -6 -5
-21 -70 -23 -95 0 -5 -10 -14 -22 -20 -13 -5 -23 -17 -23 -26 0 -9 -7 -22 -15
-29 -8 -7 -15 -21 -15 -31 0 -11 -5 -19 -11 -19 -8 0 -10 -12 -6 -33 6 -38 0
-50 -27 -60 -10 -4 -16 -13 -13 -21 3 -8 0 -22 -8 -32 -9 -13 -10 -26 -4 -42
10 -26 -3 -52 -26 -52 -14 0 -15 -17 -1 -39 7 -10 1 -21 -17 -37 -29 -25 -33
-44 -17 -74 8 -15 5 -23 -15 -38 -28 -22 -31 -42 -12 -73 10 -18 9 -23 -10
-36 -13 -9 -23 -26 -23 -39 0 -12 -4 -25 -9 -28 -9 -6 -2 -56 8 -56 16 0 6
-50 -11 -56 -10 -3 -19 -8 -19 -12 -1 -4 -2 -157 -3 -341 l-1 -335 25 -23 c19
-18 22 -25 12 -35 -15 -15 -16 -84 -2 -93 6 -4 7 -11 4 -17 -4 -6 4 -19 17
-29 19 -14 22 -20 12 -30 -15 -15 -17 -59 -3 -59 6 0 10 -5 10 -11 0 -5 -4 -7
-10 -4 -5 3 -10 3 -10 -2 0 -14 14 -29 32 -36 16 -5 16 -10 6 -33 -10 -22 -10
-28 0 -32 10 -3 10 -7 2 -17 -9 -10 -6 -16 10 -25 18 -9 21 -18 16 -41 -3 -19
-1 -29 6 -29 9 0 9 -3 1 -11 -9 -9 -5 -21 12 -50 18 -27 21 -39 12 -43 -9 -5
-9 -7 1 -12 7 -3 19 -13 28 -21 13 -14 13 -17 -1 -33 -16 -17 -15 -20 8 -35
32 -21 41 -43 25 -63 -10 -12 -10 -16 0 -19 6 -3 12 -13 12 -24 0 -12 7 -19
19 -19 12 0 23 -11 30 -31 14 -40 14 -39 -4 -39 -18 0 -20 -26 -2 -37 7 -4 13
-17 12 -27 0 -11 12 -26 29 -36 34 -18 45 -40 22 -40 -9 0 -16 -7 -16 -15 0
-8 5 -15 10 -15 6 0 10 -11 10 -24 0 -13 7 -29 15 -36 8 -7 15 -21 15 -31 0
-11 7 -19 15 -19 8 0 14 -3 14 -7 -4 -24 4 -39 24 -48 13 -6 22 -19 23 -33 1
-12 9 -31 18 -41 9 -9 16 -21 16 -25 0 -5 11 -21 25 -38 14 -16 25 -36 25 -44
0 -8 9 -23 21 -35 13 -13 18 -27 14 -40 -4 -11 -2 -19 5 -19 7 0 10 -8 7 -20
-4 -15 0 -19 15 -17 16 1 24 -8 34 -37 8 -22 23 -48 33 -57 11 -10 32 -44 47
-76 16 -32 36 -64 45 -70 9 -7 20 -28 23 -48 4 -19 15 -39 26 -45 11 -6 20
-19 20 -30 0 -10 5 -22 10 -25 6 -3 10 -15 10 -27 0 -17 2 -19 16 -8 8 8 14 9
12 4 -4 -15 34 -104 43 -99 4 3 16 -12 25 -32 10 -21 31 -51 47 -66 17 -16 31
-39 31 -52 2 -27 25 -57 38 -49 5 3 12 -3 15 -15 3 -12 9 -21 14 -21 5 0 9
-13 9 -28 0 -32 16 -52 42 -52 10 0 19 -3 19 -7 1 -5 3 -18 4 -29 3 -26 14
-46 23 -40 4 2 16 -2 27 -10 10 -8 15 -14 11 -14 -5 0 -3 -7 4 -15 7 -8 10
-23 8 -33 -5 -19 20 -42 45 -42 20 0 59 -58 52 -78 -4 -14 4 -23 30 -35 39
-19 78 -73 71 -99 -5 -20 17 -41 45 -43 23 -2 71 -55 65 -72 -5 -11 21 -39 83
-92 17 -15 22 -27 18 -43 -8 -28 9 -48 40 -48 18 0 28 -9 39 -35 8 -19 30 -45
49 -57 40 -26 44 -38 14 -45 -18 -5 -18 -7 10 -24 17 -10 31 -23 31 -28 0 -6
12 -16 27 -23 34 -17 45 -43 14 -35 -15 3 -21 1 -21 -10 0 -9 6 -13 14 -10 16
6 69 -30 62 -41 -8 -13 23 -72 37 -72 8 0 23 -12 33 -27 27 -37 49 -60 65 -66
11 -4 12 -7 2 -18 -18 -18 -16 -30 2 -22 11 4 19 -4 28 -26 7 -19 18 -31 30
-31 22 0 35 -29 16 -40 -9 -6 -6 -10 14 -15 20 -5 27 -13 27 -31 0 -13 6 -24
13 -24 7 0 22 -7 33 -15 16 -12 17 -16 4 -24 -14 -10 -8 -25 11 -27 5 -1 13
-2 18 -3 5 0 11 -13 13 -28 2 -22 8 -28 27 -28 16 0 25 -6 27 -19 1 -10 7 -23
13 -29 6 -6 11 -22 11 -35 0 -17 4 -23 15 -18 8 3 15 1 15 -4 0 -5 7 -7 16 -3
12 4 15 1 12 -15 -2 -14 10 -32 35 -56 21 -19 40 -41 41 -48 1 -7 7 -23 14
-35 7 -12 12 -28 12 -37 0 -8 11 -27 25 -42 14 -15 23 -29 21 -31 -2 -2 10
-18 25 -34 16 -17 27 -34 24 -39 -2 -4 10 -23 28 -41 17 -19 40 -51 51 -71 10
-20 25 -39 32 -42 8 -3 14 -14 14 -24 0 -15 6 -19 26 -16 23 2 25 0 19 -28 -6
-23 -3 -30 12 -34 18 -5 63 -65 63 -84 0 -12 4 -17 54 -76 20 -23 33 -44 29
-48 -3 -3 8 -24 25 -45 18 -22 32 -44 32 -49 0 -4 13 -23 30 -42 16 -18 27
-37 24 -42 -3 -4 2 -11 10 -14 9 -3 16 -13 16 -20 0 -8 7 -17 15 -20 8 -4 15
-14 15 -24 0 -10 7 -23 15 -30 8 -7 15 -19 15 -26 0 -8 6 -13 12 -12 7 2 14
-7 16 -19 2 -13 8 -23 13 -23 5 0 9 -7 9 -15 0 -8 9 -19 20 -25 11 -6 18 -15
15 -21 -4 -5 7 -22 24 -36 17 -15 31 -34 31 -43 0 -8 16 -32 35 -53 39 -42 65
-87 65 -112 0 -8 9 -24 20 -35 11 -11 20 -24 20 -28 0 -5 19 -30 43 -56 23
-26 42 -51 42 -54 1 -4 6 -17 13 -28 6 -12 9 -24 6 -27 -9 -9 16 -48 27 -42 5
4 9 0 9 -7 0 -8 11 -29 24 -47 14 -19 28 -46 31 -62 4 -16 12 -27 18 -26 6 1
13 -6 15 -16 2 -10 15 -30 28 -44 14 -15 23 -32 20 -39 -2 -6 6 -22 20 -35 13
-12 24 -26 24 -31 0 -5 9 -21 20 -36 11 -15 21 -39 22 -55 2 -17 7 -26 15 -23
15 6 53 -53 53 -83 0 -12 7 -24 15 -27 10 -4 13 -13 9 -26 -4 -13 -2 -18 4
-14 21 13 40 -7 46 -49 4 -24 13 -46 21 -49 8 -3 15 -14 15 -26 0 -11 9 -25
19 -32 15 -9 17 -15 9 -25 -8 -10 -5 -13 10 -13 26 0 46 -32 31 -47 -12 -12 6
-50 34 -71 9 -7 15 -16 13 -20 -2 -4 8 -26 24 -48 15 -23 34 -58 41 -78 7 -20
16 -36 21 -36 12 0 52 -97 49 -118 -1 -7 8 -12 22 -12 31 0 37 -8 27 -34 -5
-13 -3 -33 5 -51 7 -17 14 -26 14 -20 1 15 41 -67 41 -85 0 -9 9 -23 20 -33
11 -9 17 -23 14 -30 -3 -8 2 -17 10 -20 9 -4 16 -13 16 -20 0 -8 14 -40 30
-71 17 -31 27 -56 23 -56 -5 0 -1 -6 7 -13 17 -14 50 -81 50 -101 0 -8 7 -16
15 -20 8 -3 15 -17 15 -31 0 -14 5 -25 10 -25 6 0 15 -11 20 -25 5 -14 13 -25
17 -24 24 4 29 -4 25 -33 -3 -22 0 -35 13 -44 10 -7 15 -20 12 -28 -4 -10 2
-20 14 -27 14 -7 19 -17 16 -30 -3 -12 2 -23 14 -29 10 -6 16 -17 13 -24 -3
-8 5 -21 17 -29 14 -11 19 -21 15 -33 -8 -20 19 -54 43 -55 13 0 12 -2 -2 -8
-17 -6 -17 -8 2 -25 15 -14 18 -23 11 -37 -7 -13 -5 -22 7 -35 10 -9 19 -26
20 -38 2 -11 10 -26 19 -33 9 -6 13 -16 10 -22 -3 -5 1 -16 9 -24 8 -9 15 -22
15 -30 0 -8 9 -22 19 -31 19 -18 21 -31 8 -54 -5 -7 -2 -14 7 -18 9 -3 16 -12
16 -19 0 -7 7 -12 16 -11 26 2 28 -22 2 -27 l-23 -4 23 -8 c14 -5 22 -15 22
-30 0 -12 7 -28 15 -35 8 -7 15 -20 15 -29 0 -9 9 -22 19 -28 12 -8 18 -20 16
-33 -2 -12 5 -28 17 -40 12 -10 18 -26 15 -34 -4 -9 0 -22 8 -29 8 -9 10 -19
4 -28 -17 -27 -10 -48 19 -51 23 -3 27 -7 24 -31 -2 -18 2 -33 13 -41 10 -7
15 -21 13 -32 -2 -10 4 -28 14 -38 22 -24 22 -30 3 -50 -20 -19 -19 -26 3 -26
24 0 42 -19 35 -36 -3 -8 0 -20 5 -27 16 -19 34 -97 33 -139 -1 -27 3 -38 13
-38 23 0 28 -17 17 -56 -8 -29 -7 -35 4 -30 19 7 41 -22 28 -35 -15 -15 -4
-46 19 -52 16 -5 18 -9 9 -25 -16 -30 -10 -63 11 -56 13 4 18 -3 24 -33 3 -21
12 -47 18 -58 23 -37 25 -54 10 -70 -15 -15 -10 -40 6 -30 4 3 13 -2 20 -10
11 -13 11 -20 0 -39 -13 -26 -7 -46 14 -46 16 0 28 -50 17 -65 -4 -5 -11 -17
-14 -26 -4 -13 -1 -16 14 -12 13 4 19 0 19 -11 0 -11 -5 -14 -12 -10 -7 4 -8
3 -4 -5 4 -6 12 -9 17 -6 5 4 13 -4 18 -17 21 -56 32 -100 27 -105 -3 -4 0
-13 7 -21 10 -13 9 -15 -10 -10 -13 4 -23 3 -23 -2 0 -4 10 -10 21 -13 15 -4
20 -11 16 -21 -4 -9 -3 -16 2 -16 14 0 23 -63 10 -71 -8 -4 -6 -10 6 -16 11
-7 18 -25 20 -56 1 -26 7 -53 14 -60 13 -16 5 -27 -21 -27 -16 0 -16 -3 -6
-20 7 -11 21 -23 30 -26 9 -3 16 -13 16 -22 0 -9 3 -29 7 -45 6 -21 4 -27 -9
-27 -24 0 -19 -19 9 -42 26 -21 35 -73 13 -80 -20 -7 -18 -38 2 -38 28 0 33
-18 8 -26 l-23 -7 22 -8 c13 -5 21 -14 18 -21 -15 -44 -13 -66 8 -73 19 -6 20
-8 5 -12 -24 -6 -23 -23 2 -23 13 0 18 -5 14 -14 -3 -8 -12 -12 -21 -9 -11 4
-14 1 -12 -12 2 -10 7 -17 11 -14 4 2 14 -5 22 -16 13 -17 13 -22 0 -36 -19
-21 -18 -47 4 -52 16 -4 16 -5 0 -6 -22 -1 -23 -17 -2 -39 11 -10 13 -17 5
-20 -18 -6 -13 -28 11 -44 20 -13 21 -18 11 -39 -7 -13 -12 -46 -11 -72 1 -38
5 -47 17 -42 12 5 11 2 -3 -13 -11 -13 -15 -30 -12 -48 2 -16 5 -37 5 -46 1
-10 7 -18 15 -18 20 0 27 -25 12 -46 -11 -18 -15 -189 -5 -210 3 -5 3 -133 2
-284 -3 -322 -3 -317 1 -352 2 -16 0 -28 -3 -28 -12 0 -6 -175 6 -183 14 -9 7
-37 -15 -54 -9 -8 -16 -33 -18 -65 -1 -29 -5 -66 -8 -83 -3 -16 -7 -50 -11
-75 -3 -25 -8 -56 -11 -70 -4 -25 -8 -48 -19 -130 -3 -25 -13 -76 -21 -115 -8
-38 -17 -81 -19 -95 -4 -23 -27 -129 -30 -140 -1 -3 -5 -23 -10 -45 -4 -22 -9
-47 -11 -55 -2 -8 -9 -37 -15 -65 -12 -57 -82 -301 -96 -335 -3 -8 -7 -21 -9
-29 -9 -46 -39 -131 -46 -131 -4 0 -8 -8 -8 -19 0 -17 -10 -44 -47 -131 -8
-19 -19 -44 -24 -55 -4 -11 -16 -44 -25 -73 -9 -29 -23 -59 -30 -67 -7 -7 -15
-25 -18 -39 -7 -40 -61 -148 -91 -184 -14 -17 -24 -36 -21 -41 3 -5 0 -11 -8
-14 -8 -3 -17 -24 -21 -46 -7 -42 -58 -131 -75 -131 -5 0 -10 -7 -10 -15 0 -8
-4 -15 -10 -15 -5 0 -12 -16 -16 -35 -3 -19 -17 -46 -30 -60 -13 -14 -24 -30
-24 -36 0 -5 -5 -9 -10 -9 -6 0 -15 -11 -20 -25 -5 -14 -13 -25 -18 -25 -4 0
-8 -11 -8 -25 0 -23 4 -25 42 -25 28 0 44 5 48 15 3 8 12 15 21 15 8 0 15 3
15 8 0 4 23 18 50 31 28 14 50 28 50 31 0 3 15 14 33 25 17 10 124 80 237 154
113 75 210 138 215 141 50 25 286 192 365 259 31 25 31 26 105 80 33 25 62 48
65 51 3 4 30 26 60 49 30 24 74 60 97 82 22 21 58 50 79 64 21 14 55 44 76 66
22 23 42 38 46 35 6 -7 10 -4 139 123 46 45 87 81 93 81 6 0 18 6 26 13 33 28
134 131 134 137 0 11 37 51 46 49 23 -4 34 3 34 19 0 25 38 68 56 64 21 -4 66
25 94 63 14 18 28 31 33 28 4 -2 7 3 7 11 0 9 4 16 8 16 8 0 302 288 302 296
0 2 34 36 75 76 41 40 75 80 75 89 0 36 11 49 36 43 14 -4 24 -2 23 2 -5 28 7
49 55 98 30 30 57 52 60 49 10 -10 106 100 106 122 0 26 18 45 36 38 14 -5 23
9 28 44 2 10 13 19 24 21 12 2 22 10 22 18 0 8 4 13 9 11 13 -3 51 43 58 72 6
28 70 101 88 101 14 0 49 47 50 70 2 27 55 79 74 72 9 -3 13 -2 9 2 -3 4 2 16
13 27 10 10 19 28 19 38 0 22 41 71 59 71 7 0 17 13 22 29 6 16 17 32 25 35 8
3 14 15 14 26 0 11 7 20 15 20 9 0 18 7 21 15 4 8 12 15 20 15 13 0 17 11 17
52 0 10 8 20 19 24 42 13 74 60 69 101 -1 6 8 14 19 18 34 11 65 49 65 78 -1
17 9 37 27 54 15 15 28 31 28 36 0 5 12 26 28 46 15 20 33 45 40 56 37 60 52
81 61 92 6 7 11 17 11 23 0 5 4 10 8 10 5 0 15 12 22 28 8 15 23 37 33 49 22
25 44 60 53 86 3 9 10 17 15 17 5 0 9 8 9 19 0 10 7 24 15 31 8 7 15 17 15 22
0 6 12 27 28 47 15 20 38 57 52 84 13 26 29 47 34 47 5 0 6 3 3 7 -4 3 2 13
14 21 11 8 18 20 15 27 -3 8 8 32 25 54 16 23 29 48 29 56 0 8 9 23 20 32 11
10 20 25 20 34 0 9 8 27 18 40 18 25 39 67 40 83 0 5 4 12 9 15 15 10 152 288
146 295 -3 3 2 8 11 12 9 3 16 13 16 20 0 8 7 26 16 39 9 14 13 25 9 25 -5 0
-1 8 7 18 9 9 19 28 23 42 4 13 13 30 20 37 8 7 12 21 11 30 -2 10 6 26 17 36
11 9 17 17 13 17 -3 0 4 21 18 48 13 26 27 58 31 72 4 14 20 53 36 88 16 35
29 70 29 77 0 8 11 34 24 58 14 24 26 55 28 68 2 13 9 34 16 46 7 12 12 30 12
41 0 11 7 25 15 32 8 7 15 22 15 34 0 12 5 27 11 33 6 6 13 26 16 44 3 19 10
40 16 48 6 7 12 20 14 30 3 27 35 123 49 149 7 14 11 29 8 33 -3 5 3 23 12 41
9 18 18 46 19 63 0 16 6 41 12 55 18 42 36 103 44 145 10 53 15 74 28 108 6
16 11 39 11 53 0 14 6 37 14 52 7 15 16 45 18 67 3 22 10 49 15 60 6 11 11 22
11 25 -1 5 14 100 17 110 21 75 26 95 24 113 -2 12 3 33 10 46 7 12 14 47 16
77 2 29 7 59 11 66 8 12 14 54 15 103 0 10 5 25 10 32 6 7 12 34 14 60 1 26 6
62 9 78 11 46 36 228 42 305 2 25 8 66 13 92 6 27 8 55 5 63 -4 8 -2 21 3 28
6 6 11 28 12 47 1 33 8 103 16 180 3 19 7 69 9 110 3 41 8 100 11 130 3 30 7
73 10 95 2 22 6 116 10 210 3 93 11 175 16 181 7 9 7 19 -1 34 -6 12 -8 30 -4
43 4 12 7 32 5 45 -1 13 3 29 9 37 6 8 9 19 5 24 -8 13 -7 487 1 521 10 43 11
84 2 115 -9 32 -12 404 -4 413 3 2 -1 17 -9 32 -12 23 -12 30 -1 46 12 16 12
23 1 44 -9 18 -15 79 -17 193 -1 92 -6 167 -10 167 -7 0 -8 21 -9 155 0 33 -5
72 -11 88 -8 20 -7 31 3 43 11 14 11 18 -2 28 -9 6 -15 22 -14 36 2 14 0 29
-3 34 -3 6 -7 52 -8 104 -2 51 -7 99 -13 105 -5 7 -11 46 -12 87 -1 41 -8 90
-16 108 -7 18 -11 37 -8 41 5 10 -13 167 -22 191 -3 8 -8 31 -10 50 -8 87 -16
130 -23 130 -4 0 -7 17 -7 38 -1 50 -8 98 -23 152 -7 25 -14 59 -16 75 -5 42
-23 127 -31 145 -3 8 -8 29 -9 45 -2 17 -8 48 -14 70 -7 22 -13 51 -15 65 -2
14 -4 25 -5 25 -1 0 -3 16 -5 36 -2 20 -10 50 -19 67 -9 17 -16 46 -16 65 0
18 -3 37 -7 41 -4 3 -8 20 -9 37 -2 17 -10 48 -18 70 -9 21 -14 39 -11 39 3 0
-1 12 -9 28 -8 15 -17 49 -21 75 -4 26 -11 50 -16 53 -5 3 -9 18 -9 33 0 15
-5 32 -11 38 -7 7 -13 29 -14 50 -1 21 -9 52 -17 68 -15 29 -34 88 -41 130 -2
11 -11 35 -21 54 -10 19 -20 43 -21 55 -7 41 -33 125 -58 186 -6 14 -12 34
-14 45 -2 11 -10 23 -19 28 -8 5 -14 19 -12 32 1 12 -2 33 -8 46 -21 44 -45
105 -48 119 -1 8 -15 41 -29 74 -15 32 -27 64 -27 70 0 7 -5 17 -12 24 -6 6
-13 21 -15 32 -2 11 -14 43 -28 70 -14 27 -25 56 -25 63 0 8 -7 20 -15 27 -8
7 -15 19 -15 26 0 37 -274 586 -302 605 -5 3 -11 16 -13 29 -2 13 -9 26 -14
29 -5 4 -12 18 -16 32 -3 14 -17 38 -30 53 -13 15 -22 33 -19 40 3 8 -9 27
-25 44 -17 17 -31 40 -31 51 0 12 -4 21 -9 21 -5 0 -13 9 -16 20 -3 11 -13 20
-21 20 -12 0 -19 18 -15 42 0 3 -12 20 -27 36 -15 16 -26 34 -25 39 2 6 -3 16
-12 23 -8 7 -15 18 -15 26 0 7 -6 19 -13 26 -7 7 -35 47 -62 88 -27 41 -60 85
-72 97 -13 12 -23 29 -23 38 0 9 -11 27 -25 41 -14 14 -25 29 -25 34 0 5 -7
16 -16 24 -8 9 -17 25 -19 36 -5 27 -14 40 -28 40 -18 0 -57 51 -57 75 0 25
-39 65 -63 65 -9 0 -17 4 -17 9 0 5 -7 17 -16 26 -9 9 -18 26 -19 38 -1 12 -3
27 -4 33 0 6 -18 20 -40 32 -54 31 -69 51 -73 100 -1 6 -7 12 -15 12 -7 0 -13
4 -13 9 0 13 -125 138 -146 145 -11 4 -32 24 -49 46 -16 21 -36 39 -42 40 -7
0 -13 4 -13 8 0 12 -160 172 -172 172 -5 0 -16 16 -24 35 -8 20 -21 38 -29 42
-8 3 -15 11 -15 19 0 8 -5 14 -10 14 -6 0 -24 12 -39 28 -78 74 -90 83 -101
77 -15 -9 -57 30 -64 61 -4 13 -13 24 -21 24 -8 0 -15 6 -15 14 0 18 -20 25
-53 19 -20 -4 -27 -1 -27 11 0 8 -11 23 -25 32 -14 9 -28 27 -31 40 -7 26 -32
38 -58 28 -9 -3 -16 -1 -16 5 0 6 -7 11 -15 11 -8 0 -15 9 -15 20 0 24 -63 75
-93 75 -15 0 -23 7 -25 23 -2 13 -11 26 -20 29 -9 4 -21 13 -25 20 -5 8 -20
13 -35 11 -20 -2 -28 2 -30 17 -6 28 -33 46 -60 40 -17 -4 -24 0 -31 18 -14
36 -38 52 -56 37 -12 -10 -15 -7 -20 13 -4 16 -20 32 -41 42 -19 9 -34 19 -34
24 0 4 -19 18 -42 31 -24 13 -49 30 -57 38 -11 10 -16 11 -21 1 -10 -15 -40
-4 -40 14 0 8 -9 22 -20 32 -11 10 -20 14 -20 10 0 -5 -9 1 -20 13 -17 18 -25
20 -41 12 -23 -13 -39 -5 -39 17 0 11 -6 14 -21 10 -13 -4 -22 0 -27 11 -9 24
-21 34 -77 62 -27 14 -54 30 -58 37 -4 7 -19 13 -32 13 -13 0 -30 6 -37 13 -7
8 -19 12 -26 9 -6 -2 -12 3 -12 11 0 20 -29 30 -46 16 -15 -13 -34 -4 -34 17
0 8 -6 14 -14 14 -8 0 -16 7 -20 15 -3 8 -15 15 -26 15 -11 0 -32 7 -45 16
-14 9 -25 13 -25 8 0 -4 -6 1 -14 11 -9 13 -27 19 -57 20 -33 1 -45 5 -47 18
-4 18 -32 24 -32 7 0 -5 -7 -7 -15 -4 -9 4 -14 14 -13 22 2 11 -4 17 -17 17
-11 0 -24 5 -30 11 -14 16 -65 27 -65 14 0 -5 -7 -10 -15 -10 -8 0 -15 8 -15
19 0 20 -52 38 -58 20 -7 -17 -22 -9 -22 11 0 13 -7 20 -20 20 -11 0 -20 6
-20 14 0 11 -12 13 -50 11 -42 -3 -50 -1 -56 17 -5 17 -12 19 -44 14 -31 -5
-39 -3 -43 13 -3 15 -12 18 -40 15 -28 -3 -37 0 -41 14 -6 19 -47 25 -62 9
-13 -13 -24 -7 -24 13 0 16 -7 20 -32 20 -17 0 -39 6 -47 14 -9 7 -33 16 -53
19 -28 4 -38 2 -43 -11 -5 -14 -9 -13 -21 10 -10 19 -20 26 -39 24 -14 -2 -25
2 -25 7 0 7 -4 7 -12 -1 -18 -18 -35 -15 -41 7 -3 14 -13 19 -43 18 -22 0 -42
-5 -45 -9 -6 -9 -49 24 -49 38 0 5 -20 8 -45 6 -25 -2 -45 -8 -45 -13 0 -5 -4
-9 -10 -9 -5 0 -10 9 -10 20 0 11 -6 20 -12 21 -77 5 -104 3 -110 -5 -4 -6
-17 1 -32 16 -21 24 -31 27 -74 24 -27 -2 -55 -6 -61 -10 -12 -8 -44 18 -34
28 4 3 -42 6 -101 6 -69 0 -105 4 -101 10 3 6 1 11 -4 11 -42 5 -58 4 -70 -5
-9 -7 -17 -5 -27 9 -8 11 -14 14 -14 6 0 -8 -6 -11 -17 -7 -29 12 -727 8 -731
-4 -6 -16 -30 -12 -34 6 -2 9 -7 12 -11 8z m-1287 -6845 c0 -11 -27 -12 -34 0
-3 4 -3 11 0 14 8 8 34 -3 34 -14z m2837 -4635 c-3 -3 -12 -4 -19 -1 -8 3 -5
6 6 6 11 1 17 -2 13 -5z m23 -54 c0 -5 -5 -10 -11 -10 -5 0 -7 5 -4 10 3 6 8
10 11 10 2 0 4 -4 4 -10z m26 -67 c-10 -10 -19 5 -10 18 6 11 8 11 12 0 2 -7
1 -15 -2 -18z"/>
</g>
</svg>
